REM DIRINDEX 1\2,1\3,1\4,1\5,1\6
REM DIRNAME cjc030,folder01,folder02,folder03,folder04,folder05
TITLE ""
FILE "Disc2Track34.mp3" MP3
  TRACK 01 AUDIO
    TITLE "3:cjc030_03056"
    INDEX 01 00:00:00
  TRACK 02 AUDIO
    TITLE "0:"
    INDEX 01 00:01:09
  TRACK 03 AUDIO
    TITLE "4:cjc030_03057"
    INDEX 01 00:01:19
  TRACK 04 AUDIO
    TITLE "0:"
    INDEX 01 00:03:23
  TRACK 05 AUDIO
    TITLE "5:cjc030_03058"
    INDEX 01 00:03:31
  TRACK 06 AUDIO
    TITLE "0:"
    INDEX 01 00:04:46
  TRACK 07 AUDIO
    TITLE "6:cjc030_03059"
    INDEX 01 00:04:58
  TRACK 08 AUDIO
    TITLE "0:"
    INDEX 01 00:07:13
  TRACK 09 AUDIO
    TITLE "3:cjc030_03060"
    INDEX 01 00:07:64
  TRACK 10 AUDIO
    TITLE "0:"
    INDEX 01 00:09:14
  TRACK 11 AUDIO
    TITLE "4:cjc030_03061"
    INDEX 01 00:09:22
  TRACK 12 AUDIO
    TITLE "0:"
    INDEX 01 00:10:31
  TRACK 13 AUDIO
    TITLE "5:cjc030_03062"
    INDEX 01 00:10:37
  TRACK 14 AUDIO
    TITLE "0:"
    INDEX 01 00:11:64
  TRACK 15 AUDIO
    TITLE "6:cjc030_03063"
    INDEX 01 00:12:03
  TRACK 16 AUDIO
    TITLE "0:"
    INDEX 01 00:15:44
  TRACK 17 AUDIO
    TITLE "3:cjc030_03064"
    INDEX 01 00:16:20
  TRACK 18 AUDIO
    TITLE "0:"
    INDEX 01 00:17:33
  TRACK 19 AUDIO
    TITLE "4:cjc030_03065"
    INDEX 01 00:17:43
  TRACK 20 AUDIO
    TITLE "0:"
    INDEX 01 00:20:32
  TRACK 21 AUDIO
    TITLE "5:cjc030_03066"
    INDEX 01 00:20:37
  TRACK 22 AUDIO
    TITLE "0:"
    INDEX 01 00:21:57
  TRACK 23 AUDIO
    TITLE "6:cjc030_03067"
    INDEX 01 00:21:68
  TRACK 24 AUDIO
    TITLE "0:"
    INDEX 01 00:25:64
  TRACK 25 AUDIO
    TITLE "6:cjc030_03068"
    INDEX 01 00:26:22
  TRACK 26 AUDIO
    TITLE "0:"
    INDEX 01 00:31:37
  TRACK 27 AUDIO
    TITLE "3:cjc030_03069"
    INDEX 01 00:32:11
  TRACK 28 AUDIO
    TITLE "0:"
    INDEX 01 00:33:28
  TRACK 29 AUDIO
    TITLE "4:cjc030_03070"
    INDEX 01 00:33:38
  TRACK 30 AUDIO
    TITLE "0:"
    INDEX 01 00:35:39
  TRACK 31 AUDIO
    TITLE "5:cjc030_03071"
    INDEX 01 00:35:47
  TRACK 32 AUDIO
    TITLE "0:"
    INDEX 01 00:36:64
  TRACK 33 AUDIO
    TITLE "3:cjc030_03072"
    INDEX 01 00:37:44
  TRACK 34 AUDIO
    TITLE "0:"
    INDEX 01 00:39:07
  TRACK 35 AUDIO
    TITLE "4:cjc030_03073"
    INDEX 01 00:39:17
  TRACK 36 AUDIO
    TITLE "0:"
    INDEX 01 00:40:09
  TRACK 37 AUDIO
    TITLE "5:cjc030_03074"
    INDEX 01 00:40:19
  TRACK 38 AUDIO
    TITLE "0:"
    INDEX 01 00:41:59
  TRACK 39 AUDIO
    TITLE "6:cjc030_03075"
    INDEX 01 00:41:69
  TRACK 40 AUDIO
    TITLE "0:"
    INDEX 01 00:44:28
  TRACK 41 AUDIO
    TITLE "3:cjc030_03076"
    INDEX 01 00:44:73
  TRACK 42 AUDIO
    TITLE "0:"
    INDEX 01 00:46:11
  TRACK 43 AUDIO
    TITLE "4:cjc030_03077"
    INDEX 01 00:46:19
  TRACK 44 AUDIO
    TITLE "0:"
    INDEX 01 00:47:62
  TRACK 45 AUDIO
    TITLE "5:cjc030_03078"
    INDEX 01 00:47:70
  TRACK 46 AUDIO
    TITLE "0:"
    INDEX 01 00:49:10
  TRACK 47 AUDIO
    TITLE "6:cjc030_03079"
    INDEX 01 00:49:21
  TRACK 48 AUDIO
    TITLE "0:"
    INDEX 01 00:52:20
  TRACK 49 AUDIO
    TITLE "3:cjc030_03080"
    INDEX 01 00:52:69
  TRACK 50 AUDIO
    TITLE "0:"
    INDEX 01 00:54:03
  TRACK 51 AUDIO
    TITLE "4:cjc030_03081"
    INDEX 01 00:54:13
  TRACK 52 AUDIO
    TITLE "0:"
    INDEX 01 00:55:40
  TRACK 53 AUDIO
    TITLE "5:cjc030_03082"
    INDEX 01 00:55:50
  TRACK 54 AUDIO
    TITLE "0:"
    INDEX 01 00:56:59
  TRACK 55 AUDIO
    TITLE "6:cjc030_03083"
    INDEX 01 00:56:71
  TRACK 56 AUDIO
    TITLE "0:"
    INDEX 01 00:59:61
  TRACK 57 AUDIO
    TITLE "3:cjc030_03084"
    INDEX 01 01:00:35
  TRACK 58 AUDIO
    TITLE "0:"
    INDEX 01 01:01:56
  TRACK 59 AUDIO
    TITLE "4:cjc030_03085"
    INDEX 01 01:01:64
  TRACK 60 AUDIO
    TITLE "0:"
    INDEX 01 01:02:44
  TRACK 61 AUDIO
    TITLE "5:cjc030_03086"
    INDEX 01 01:02:54
  TRACK 62 AUDIO
    TITLE "0:"
    INDEX 01 01:04:00
  TRACK 63 AUDIO
    TITLE "3:cjc030_03087"
    INDEX 01 01:04:48
  TRACK 64 AUDIO
    TITLE "0:"
    INDEX 01 01:05:62
  TRACK 65 AUDIO
    TITLE "4:cjc030_03088"
    INDEX 01 01:05:73
  TRACK 66 AUDIO
    TITLE "0:"
    INDEX 01 01:06:71
  TRACK 67 AUDIO
    TITLE "5:cjc030_03089"
    INDEX 01 01:07:04
  TRACK 68 AUDIO
    TITLE "0:"
    INDEX 01 01:08:19
  TRACK 69 AUDIO
    TITLE "3:cjc030_03090"
    INDEX 01 01:09:01
  TRACK 70 AUDIO
    TITLE "0:"
    INDEX 01 01:10:12
  TRACK 71 AUDIO
    TITLE "4:cjc030_03091"
    INDEX 01 01:10:22
  TRACK 72 AUDIO
    TITLE "0:"
    INDEX 01 01:11:51
  TRACK 73 AUDIO
    TITLE "5:cjc030_03092"
    INDEX 01 01:11:58
  TRACK 74 AUDIO
    TITLE "0:"
    INDEX 01 01:12:71
  TRACK 75 AUDIO
    TITLE "6:cjc030_03093"
    INDEX 01 01:13:08
  TRACK 76 AUDIO
    TITLE "0:"
    INDEX 01 01:15:19
  TRACK 77 AUDIO
    TITLE "3:cjc030_03094"
    INDEX 01 01:15:70
  TRACK 78 AUDIO
    TITLE "0:"
    INDEX 01 01:17:12
  TRACK 79 AUDIO
    TITLE "4:cjc030_03095"
    INDEX 01 01:17:22
  TRACK 80 AUDIO
    TITLE "0:"
    INDEX 01 01:18:21
  TRACK 81 AUDIO
    TITLE "5:cjc030_03096"
    INDEX 01 01:18:31
  TRACK 82 AUDIO
    TITLE "0:"
    INDEX 01 01:19:46
  TRACK 83 AUDIO
    TITLE "3:cjc030_03097"
    INDEX 01 01:20:26
  TRACK 84 AUDIO
    TITLE "0:"
    INDEX 01 01:21:39
  TRACK 85 AUDIO
    TITLE "4:cjc030_03098"
    INDEX 01 01:21:49
  TRACK 86 AUDIO
    TITLE "0:"
    INDEX 01 01:23:01
  TRACK 87 AUDIO
    TITLE "5:cjc030_03099"
    INDEX 01 01:23:07
  TRACK 88 AUDIO
    TITLE "0:"
    INDEX 01 01:24:22
  TRACK 89 AUDIO
    TITLE "6:cjc030_03100"
    INDEX 01 01:24:36
  TRACK 90 AUDIO
    TITLE "0:"
    INDEX 01 01:27:28
  TRACK 91 AUDIO
    TITLE "3:cjc030_03101"
    INDEX 01 01:28:02
  TRACK 92 AUDIO
    TITLE "0:"
    INDEX 01 01:29:25
  TRACK 93 AUDIO
    TITLE "4:cjc030_03102"
    INDEX 01 01:29:31
  TRACK 94 AUDIO
    TITLE "0:"
    INDEX 01 01:30:34
  TRACK 95 AUDIO
    TITLE "5:cjc030_03103"
    INDEX 01 01:30:44
  TRACK 96 AUDIO
    TITLE "0:"
    INDEX 01 01:31:65
  TRACK 97 AUDIO
    TITLE "6:cjc030_03104"
    INDEX 01 01:32:04
  TRACK 98 AUDIO
    TITLE "0:"
    INDEX 01 01:33:64
  TRACK 99 AUDIO
    TITLE "3:cjc030_03105"
    INDEX 01 01:34:38
  TRACK 100 AUDIO
    TITLE "0:"
    INDEX 01 01:35:59
  TRACK 101 AUDIO
    TITLE "4:cjc030_03106"
    INDEX 01 01:35:71
  TRACK 102 AUDIO
    TITLE "0:"
    INDEX 01 01:37:17
  TRACK 103 AUDIO
    TITLE "5:cjc030_03107"
    INDEX 01 01:37:26
  TRACK 104 AUDIO
    TITLE "0:"
    INDEX 01 01:38:49
  TRACK 105 AUDIO
    TITLE "6:cjc030_03108"
    INDEX 01 01:38:61
  TRACK 106 AUDIO
    TITLE "0:"
    INDEX 01 01:41:05
